<svg width="440" height="594" viewBox="0 0 440 594" fill="none" xmlns="http://www.w3.org/2000/svg">
<path d="M428.5 214.5C428.5 216.119 428.482 217.734 428.446 219.345C399.076 135.572 319.303 75.5 225.5 75.5C110.241 75.5 16.1648 166.196 10.7465 280.114C4.09327 259.437 0.5 237.388 0.5 214.5C0.5 96.3111 96.3111 0.5 214.5 0.5C332.689 0.5 428.5 96.3111 428.5 214.5ZM225.5 76.5C319.801 76.5 399.856 137.495 428.365 222.186C427.622 243.222 423.843 263.485 417.453 282.551C382.009 212.514 309.362 164.5 225.5 164.5C131.504 164.5 51.5965 224.819 22.3736 308.861C18.2464 300.474 14.6523 291.777 11.6354 282.814C15.6818 168.185 109.884 76.5 225.5 76.5ZM418.084 283.809C424.422 265.185 428.277 245.413 429.254 224.886C435.907 245.563 439.5 267.612 439.5 290.5C439.5 304.902 438.077 318.973 435.365 332.577C431.555 315.463 425.705 299.117 418.084 283.809ZM225.5 165.5C309.322 165.5 381.888 213.692 417.002 283.881C388.183 368.016 308.405 428.5 214.5 428.5C130.678 428.5 58.1117 380.308 22.9977 310.119C51.8171 225.984 131.595 165.5 225.5 165.5ZM22.5471 311.449C57.9905 381.486 130.638 429.5 214.5 429.5C308.496 429.5 388.404 369.181 417.626 285.139C425.322 300.779 431.165 317.494 434.867 335C414.387 431.832 328.43 504.5 225.5 504.5C122.57 504.5 36.6128 431.832 16.1331 335C17.8305 326.974 19.9777 319.115 22.5471 311.449ZM11.5538 285.655C14.5097 294.086 17.9761 302.277 21.916 310.191C19.4336 317.485 17.3322 324.955 15.6354 332.577C12.9228 318.973 11.5 304.902 11.5 290.5C11.5 288.881 11.518 287.266 11.5538 285.655ZM225.5 505.5C328.125 505.5 413.956 433.598 435.365 337.423C438.077 351.027 439.5 365.098 439.5 379.5C439.5 497.689 343.689 593.5 225.5 593.5C107.311 593.5 11.5 497.689 11.5 379.5C11.5 365.098 12.9228 351.027 15.6354 337.423C37.0442 433.598 122.875 505.5 225.5 505.5Z" stroke="#F04037"/>
</svg>
